<svg xmlns="http://www.w3.org/2000/svg" width="23" height="18" viewBox="0 0 23 18">
    <path fill-rule="nonzero" stroke-width=".5" d="M20.475 10.131c0 .618.495 1.119 1.105 1.119.611 0 1.106-.501 1.106-1.119 0-.401-.21-.75-.524-.948V6.067a.59.59 0 0 0-.355-.543L11.465 1.108a.576.576 0 0 0-.453 0L.67 5.524a.59.59 0 0 0-.356.543c0 .237.14.45.356.543l2.329.994v6.108c0 1.606 2.547 3.226 8.24 3.226 5.691 0 8.239-1.62 8.239-3.226V7.604l1.52-.65v2.23a1.118 1.118 0 0 0-.523.947zm-2.162 3.581c0 .547-1.676 2.048-7.075 2.048-5.398 0-7.075-1.501-7.075-2.048v-5.61l6.849 2.924a.576.576 0 0 0 .453 0L18.313 8.1v5.611zm-7.075-3.868L2.393 6.067l8.845-3.777 8.845 3.777-8.845 3.777z"/>
</svg>
