<svg xmlns="http://www.w3.org/2000/svg" width="18" height="18" viewBox="0 0 18 18">
    <path fill-rule="nonzero" d="M16.69 7.799h-1.978V1.307c0-.72-.59-1.307-1.309-1.307h-8.78c-.721 0-1.309.59-1.309 1.307V5.34H1.31C.588 5.34 0 5.929 0 6.647v10.046C0 17.413.59 18 1.309 18H16.69c.721 0 1.309-.59 1.309-1.307V9.106a1.313 1.313 0 0 0-1.31-1.307zM3.27 16.693H1.307V6.65H3.27v10.044zm4.33 0v-4.77h2.826v4.77H7.6zm5.803 0h-1.669v-4.77c0-.72-.59-1.308-1.308-1.308H7.6c-.721 0-1.31.59-1.31 1.307v4.771H4.624V1.307h8.78v15.386zm3.286 0h-1.993V9.106h1.993v7.587zM11.732 4.602h-5.44a.654.654 0 1 1 0-1.307h5.44a.654.654 0 1 1 0 1.307zm0 3.146h-5.44a.654.654 0 1 1 0-1.306h5.44a.654.654 0 1 1 0 1.306z"/>
</svg>
