<svg xmlns="http://www.w3.org/2000/svg" width="21" height="16" viewBox="0 0 21 16">
    <g fill-rule="nonzero">
        <path d="M18.493.267H2.507C1.365.267.437 1.304.437 2.579V13.42c0 1.275.928 2.312 2.07 2.312h15.986c1.142 0 2.07-1.037 2.07-2.312V2.58c0-1.275-.928-2.312-2.07-2.312zm.638 13.154c0 .393-.286.712-.638.712H2.507c-.352 0-.638-.32-.638-.712V2.58c0-.393.286-.712.638-.712h15.986c.352 0 .638.32.638.712V13.42z"/>
        <path d="M10.5 8.534L3.434 2.99 2.611 4.3l7.889 6.19 7.889-6.19-.823-1.31z"/>
    </g>
</svg>
