<svg xmlns="http://www.w3.org/2000/svg" width="18" height="16" viewBox="0 0 18 16">
    <path fill-rule="nonzero" stroke-width=".3" d="M9 .229c-1.467 0-2.667 1.233-2.667 2.742 0 1.51 1.2 2.743 2.667 2.743 1.467 0 2.667-1.233 2.667-2.743C11.667 1.462 10.467.23 9 .23zm0 .914c.987 0 1.778.813 1.778 1.828C10.778 3.987 9.988 4.8 9 4.8c-.987 0-1.778-.813-1.778-1.829 0-1.015.79-1.828 1.778-1.828zM9 6.4c-1.315 0-2.5.58-3.313 1.514a.467.467 0 0 0 .032.647c.182.17.463.155.628-.032A3.498 3.498 0 0 1 9 7.314c1.509 0 2.785.95 3.306 2.3A5.443 5.443 0 0 0 9 10.443 5.44 5.44 0 0 0 6.111 9.6c-1.537 0-2.824.637-3.653 1.507a.46.46 0 0 0-.097.172l-1.333 3.885a.468.468 0 0 0 .057.414c.082.12.216.192.36.193h15.11a.441.441 0 0 0 .36-.193.468.468 0 0 0 .057-.414L15.64 11.28a.46.46 0 0 0-.097-.172 4.892 4.892 0 0 0-2.257-1.328C12.775 7.83 11.053 6.4 9 6.4zm-2.889 4.114a4.71 4.71 0 0 1 2.445.7v2.929c-.856-.704-2.049-1.114-3.348-1.114-1.028 0-1.981.27-2.757.728l.702-2.057c.662-.667 1.693-1.186 2.958-1.186zm5.778 0c1.265 0 2.296.52 2.958 1.186l.702 2.057a5.432 5.432 0 0 0-2.757-.728c-1.3 0-2.492.41-3.348 1.114v-2.929a4.71 4.71 0 0 1 2.445-.7zm-6.68 3.429c1.104 0 2.098.37 2.777.914H2.444c.673-.547 1.655-.914 2.764-.914zm7.583 0c1.109 0 2.091.367 2.764.914h-5.542c.679-.543 1.673-.914 2.778-.914z"/>
</svg>
