<svg xmlns="http://www.w3.org/2000/svg" width="19" height="18" viewBox="0 0 19 18">
    <path fill="#FFF" fill-rule="evenodd" d="M15.916 0H2.32C1.15 0 .2.947.2 2.115v13.606c0 1.168.95 2.115 2.12 2.115h13.596c1.17 0 2.12-.947 2.12-2.115V2.115c0-1.168-.95-2.115-2.12-2.115zM13.02 2.787c0-.308.25-.557.557-.557h1.672c.308 0 .557.25.557.557v1.672c0 .308-.25.557-.557.557h-1.672a.557.557 0 0 1-.557-.557V2.787zm-3.881 2.73a3.426 3.426 0 0 1 3.43 3.422 3.426 3.426 0 0 1-3.43 3.422 3.426 3.426 0 0 1-3.43-3.422 3.426 3.426 0 0 1 3.43-3.422zm7.225 10.09c0 .307-.25.557-.558.557H2.43a.558.558 0 0 1-.558-.558v-8.36h2.23c-.29.418-.39 1.197-.39 1.693 0 2.984 2.435 5.413 5.427 5.413 2.992 0 5.426-2.429 5.426-5.413 0-.496-.07-1.264-.43-1.693h2.229v8.36z"/>
</svg>
