<svg xmlns="http://www.w3.org/2000/svg" width="22" height="18" viewBox="0 0 22 18">
    <g fill-rule="nonzero" stroke-width=".7">
        <path d="M5.916 9.686C7.15 9.686 8.15 8.662 8.15 7.4s-1-2.286-2.234-2.286S3.682 6.138 3.682 7.4s1 2.286 2.234 2.286zm0-3.657c.74 0 1.34.614 1.34 1.371s-.6 1.371-1.34 1.371c-.74 0-1.34-.614-1.34-1.371s.6-1.371 1.34-1.371zM5.916 10.6C3.148 10.662.95 13.003 1 15.834v.709c0 .252.2.457.447.457h8.936a.452.452 0 0 0 .447-.457v-.709c.05-2.831-2.148-5.172-4.915-5.234zm4.021 5.486H1.894v-.252c-.05-2.327 1.748-4.257 4.022-4.32 2.274.063 4.071 1.993 4.021 4.32v.252z"/>
        <path d="M21.107 1H5.916a.452.452 0 0 0-.447.457v2.066c0 .253.2.458.447.458a.452.452 0 0 0 .447-.458V1.914H20.66v10.057h-8.663a.452.452 0 0 0-.447.458c0 .252.2.457.447.457h9.11a.452.452 0 0 0 .447-.457V1.457c0-.252-.2-.457-.447-.457z"/>
    </g>
</svg>
