<svg xmlns="http://www.w3.org/2000/svg" width="20" height="18" viewBox="0 0 20 18">
    <g fill-rule="nonzero" stroke-width=".5">
        <path d="M18.835 16.065l-1.213-1.186c.386-.54.607-1.187.607-1.888 0-1.834-1.525-3.326-3.398-3.326-1.874 0-3.398 1.492-3.398 3.326s1.524 3.326 3.398 3.326c.808 0 1.542-.288 2.13-.737l1.176 1.15c.092.09.22.144.349.144a.507.507 0 0 0 .349-.144.47.47 0 0 0 0-.665zm-4.004-.683c-1.341 0-2.425-1.079-2.425-2.373 0-1.312 1.084-2.373 2.425-2.373 1.34 0 2.424 1.06 2.424 2.373 0 1.294-1.084 2.373-2.424 2.373z"/>
        <path d="M10.588 15.094h-7.53c-.552 0-.993-.485-.993-1.078V5.44c0-.593.441-1.078.992-1.078h13.096c.551 0 .992.485.992 1.078v3.38c0 .288.239.504.514.504a.52.52 0 0 0 .514-.504V5.44c0-1.15-.918-2.103-2.038-2.103H12.57V2.294c0-.629-.514-1.15-1.138-1.15H7.557c-.624 0-1.139.521-1.139 1.15v1.043h-3.36c-1.121 0-2.04.953-2.04 2.103v8.576c0 1.15.919 2.103 2.04 2.103h7.548a.508.508 0 0 0 .514-.503.527.527 0 0 0-.532-.522zM7.465 2.312c0-.072.055-.143.092-.143h3.876c.036 0 .091.053.091.143v1.025H7.465V2.312z"/>
    </g>
</svg>
