<svg xmlns="http://www.w3.org/2000/svg" width="19" height="18" viewBox="0 0 19 18">
    <path fill="#FFF" fill-rule="evenodd" d="M1.152 6.132H4.65v11.083H1.152V6.132zm13.055-.107c2.486 0 4.44 1.594 4.44 5.027v6.163H14.68V11.48c0-1.502-.62-2.526-1.985-2.526-1.043 0-1.624.691-1.894 1.358-.1.239-.085.572-.085.905v5.998h-3.93s.051-10.16 0-11.083h3.93v1.74c.232-.762 1.487-1.847 3.491-1.847zM2.837.9c1.29 0 2.084.828 2.11 1.921 0 1.074-.82 1.925-2.135 1.925h-.025C1.521 4.746.7 3.898.7 2.824.7 1.73 1.545.9 2.837.9z"/>
</svg>
