<svg xmlns="http://www.w3.org/2000/svg" width="25" height="17" viewBox="0 0 25 17">
    <g fill="#000" fill-rule="nonzero">
        <path d="M22.85 2.924H4.894c-.83 0-1.658.017-2.481 0h-.035c-.754 0-1.473-.662-1.438-1.44C.974.709 1.573.047 2.378.047h17.957c.829 0 1.658-.017 2.48 0h.035c.754 0 1.474.662 1.44 1.439-.035.783-.634 1.439-1.44 1.439zM22.85 9.94H9.2c-.754 0-1.474-.662-1.44-1.44.035-.776.634-1.438 1.44-1.438H22.85c.754 0 1.474.662 1.44 1.439-.035.782-.634 1.439-1.44 1.439zM22.85 16.765h-6.825c-.754 0-1.474-.661-1.44-1.438.035-.777.634-1.44 1.44-1.44h6.825c.754 0 1.474.663 1.44 1.44-.035.777-.634 1.438-1.44 1.438z"/>
    </g>
</svg>
