<svg xmlns="http://www.w3.org/2000/svg" width="19" height="17" viewBox="0 0 19 17">
    <path fill="#FFF" fill-rule="evenodd" d="M18.218 1.18a7.361 7.361 0 0 1-2.376.93A3.686 3.686 0 0 0 13.114.9c-2.063 0-3.737 1.716-3.737 3.833 0 .3.033.592.097.873-3.107-.16-5.861-1.684-7.706-4.006a3.903 3.903 0 0 0-.506 1.929c0 1.33.66 2.502 1.664 3.19A3.67 3.67 0 0 1 1.23 6.24v.047c0 1.858 1.289 3.408 3 3.758a3.643 3.643 0 0 1-1.689.067c.477 1.523 1.856 2.631 3.492 2.661A7.382 7.382 0 0 1 .5 14.363a10.405 10.405 0 0 0 5.73 1.72c6.877 0 10.636-5.84 10.636-10.905 0-.167-.003-.333-.01-.497a7.669 7.669 0 0 0 1.864-1.983c-.669.304-1.39.51-2.146.603a3.826 3.826 0 0 0 1.644-2.12"/>
</svg>
