<svg xmlns="http://www.w3.org/2000/svg" xmlns:xlink="http://www.w3.org/1999/xlink" width="136" height="88" viewBox="0 0 136 88">
    <defs>
        <filter id="a" width="181.1%" height="228.1%" x="-40.6%" y="-64%" filterUnits="objectBoundingBox">
            <feOffset in="SourceAlpha" result="shadowOffsetOuter1"/>
            <feGaussianBlur in="shadowOffsetOuter1" result="shadowBlurOuter1" stdDeviation="9.5"/>
            <feColorMatrix in="shadowBlurOuter1" result="shadowMatrixOuter1" values="0 0 0 0 0.984313725 0 0 0 0 1 0 0 0 0 0.0392156863 0 0 0 0.37928868 0"/>
            <feMerge>
                <feMergeNode in="shadowMatrixOuter1"/>
                <feMergeNode in="SourceGraphic"/>
            </feMerge>
        </filter>
        <path id="b" d="M16.807 45.442l21.28-28.212L.791.91l60.39 9.042L45.67 34.22l43.398 21.862z"/>
        <linearGradient id="d" x1="50%" x2="41.325%" y1="30.469%" y2="74.123%">
            <stop offset="0%" stop-color="#FFD500"/>
            <stop offset="100%" stop-color="#F12260"/>
        </linearGradient>
    </defs>
    <g fill="none" fill-rule="evenodd">
        <path fill="#2D2D2D" fill-rule="nonzero" d="M5.197 52.062H6.82c.861 0 1.534-.342 2.02-1.026.485-.728 1.114-3.001 1.887-6.82.617-3.045.926-5.053.926-6.024 0-.552-.143-.982-.43-1.291-.265-.31-.651-.464-1.159-.464H8.31L5.197 52.062zm-5.23 3.972l4.7-23.57h6.092c1.17 0 2.096.188 2.78.564.684.375 1.27.96 1.755 1.754.53.839.794 1.975.794 3.41 0 .794-.309 2.802-.927 6.025-.618 3.09-1.147 5.307-1.589 6.653-.441 1.347-1.037 2.395-1.787 3.145-1.346 1.346-3.123 2.02-5.33 2.02H-.033zm29.392 0H24.89l.033-3.806H19.76l-1.522 3.806H13.47l10.46-23.57h4.37l1.06 23.57zm-4.502-7.779l.033-9.236-3.542 9.236h3.51zm6.949 7.78l3.906-19.598h-3.774l.794-3.972h11.984l-.795 3.972h-3.773L36.24 56.034h-4.435zm24.426 0h-4.469l.034-3.807h-5.165l-1.522 3.806h-4.767l10.46-23.57h4.37l1.06 23.57zm-4.502-7.78l.033-9.236-3.542 9.236h3.51z"/>
        <g filter="url(#a)" transform="rotate(-2 512.506 -896.116)">
            <mask id="c" fill="#fff">
                <use xlink:href="#b"/>
            </mask>
            <use fill="#FBFF0A" xlink:href="#b"/>
            <path fill="#FBCF09" d="M50.963 13.212L63.02 9.567 45.67 34.22l-13.203 5.137-15.66 6.085 21.284-28.27z" mask="url(#c)"/>
            <path fill="url(#d)" d="M.792.91l50.171 12.302-18.496 26.145 56.6 16.725L15.37 46.006 36.34 17.67z" mask="url(#c)"/>
        </g>
        <path fill="#2D2D2D" fill-rule="nonzero" d="M86.655 44.25c.684-3.355 1.264-5.7 1.738-7.035.475-1.335 1.098-2.389 1.87-3.161 1.236-1.236 2.88-1.854 4.933-1.854 2.273 0 3.84.761 4.7 2.284.508.905.762 2.042.762 3.41 0 1.39-.298 3.509-.894 6.356-.684 3.354-1.263 5.699-1.738 7.034-.474 1.335-1.098 2.39-1.87 3.162-1.236 1.235-2.88 1.853-4.933 1.853-2.273 0-3.84-.761-4.7-2.284-.508-.905-.762-2.041-.762-3.41 0-1.39.298-3.508.894-6.355zm4.436 0c-.596 2.979-.894 5.076-.894 6.29 0 1.191.486 1.787 1.457 1.787.53 0 1.004-.21 1.423-.63.375-.374.717-1.08 1.026-2.118.31-1.037.718-2.813 1.225-5.33.596-2.979.894-5.075.894-6.289 0-1.192-.485-1.788-1.456-1.788-.53 0-1.005.21-1.424.63-.375.375-.717 1.08-1.026 2.118-.31 1.037-.717 2.814-1.225 5.33zm8.603 11.784l4.701-23.57h3.608l2.384 11.951 2.218-11.95h4.436l-4.701 23.57h-3.443l-2.416-11.918-2.35 11.917h-4.437z"/>
    </g>
</svg>
