<?xml version="1.0" encoding="utf-8"?><svg xmlns="http://www.w3.org/2000/svg" xmlns:xlink="http://www.w3.org/1999/xlink"><symbol viewBox="0 0 23 18" id="alumni" xmlns="http://www.w3.org/2000/svg"><path d="M20.475 10.131c0 .618.495 1.119 1.105 1.119.611 0 1.106-.501 1.106-1.119 0-.401-.21-.75-.524-.948V6.067a.59.59 0 0 0-.355-.543L11.465 1.108a.576.576 0 0 0-.453 0L.67 5.524a.59.59 0 0 0-.356.543c0 .237.14.45.356.543l2.329.994v6.108c0 1.606 2.547 3.226 8.24 3.226 5.691 0 8.239-1.62 8.239-3.226V7.604l1.52-.65v2.23a1.118 1.118 0 0 0-.523.947zm-2.162 3.581c0 .547-1.676 2.048-7.075 2.048-5.398 0-7.075-1.501-7.075-2.048v-5.61l6.849 2.924a.576.576 0 0 0 .453 0L18.313 8.1v5.611zm-7.075-3.868L2.393 6.067l8.845-3.777 8.845 3.777-8.845 3.777z"/></symbol><symbol viewBox="0 0 18 18" id="company" xmlns="http://www.w3.org/2000/svg"><path d="M16.69 7.799h-1.978V1.307c0-.72-.59-1.307-1.309-1.307h-8.78c-.721 0-1.309.59-1.309 1.307V5.34H1.31C.588 5.34 0 5.929 0 6.647v10.046C0 17.413.59 18 1.309 18H16.69c.721 0 1.309-.59 1.309-1.307V9.106a1.313 1.313 0 0 0-1.31-1.307zM3.27 16.693H1.307V6.65H3.27v10.044zm4.33 0v-4.77h2.826v4.77H7.6zm5.803 0h-1.669v-4.77c0-.72-.59-1.308-1.308-1.308H7.6c-.721 0-1.31.59-1.31 1.307v4.771H4.624V1.307h8.78v15.386zm3.286 0h-1.993V9.106h1.993v7.587zM11.732 4.602h-5.44a.654.654 0 1 1 0-1.307h5.44a.654.654 0 1 1 0 1.307zm0 3.146h-5.44a.654.654 0 1 1 0-1.306h5.44a.654.654 0 1 1 0 1.306z"/></symbol><symbol viewBox="0 0 21 16" id="contact" xmlns="http://www.w3.org/2000/svg"><path d="M18.493.267H2.507C1.365.267.437 1.304.437 2.579V13.42c0 1.275.928 2.312 2.07 2.312h15.986c1.142 0 2.07-1.037 2.07-2.312V2.58c0-1.275-.928-2.312-2.07-2.312zm.638 13.154c0 .393-.286.712-.638.712H2.507c-.352 0-.638-.32-.638-.712V2.58c0-.393.286-.712.638-.712h15.986c.352 0 .638.32.638.712v10.84z"/><path d="M10.5 8.534L3.434 2.99 2.611 4.3l7.889 6.19 7.889-6.19-.823-1.31z"/></symbol><symbol viewBox="0 0 18 16" id="courses" xmlns="http://www.w3.org/2000/svg"><path d="M9 .229c-1.467 0-2.667 1.233-2.667 2.742 0 1.51 1.2 2.743 2.667 2.743 1.467 0 2.667-1.233 2.667-2.743C11.667 1.462 10.467.23 9 .23zm0 .914c.987 0 1.778.813 1.778 1.828C10.778 3.987 9.988 4.8 9 4.8c-.987 0-1.778-.813-1.778-1.829 0-1.015.79-1.828 1.778-1.828zM9 6.4c-1.315 0-2.5.58-3.313 1.514a.467.467 0 0 0 .032.647c.182.17.463.155.628-.032A3.498 3.498 0 0 1 9 7.314c1.509 0 2.785.95 3.306 2.3A5.443 5.443 0 0 0 9 10.443 5.44 5.44 0 0 0 6.111 9.6c-1.537 0-2.824.637-3.653 1.507a.46.46 0 0 0-.097.172l-1.333 3.885a.468.468 0 0 0 .057.414.44.44 0 0 0 .36.193h15.11a.441.441 0 0 0 .36-.193.468.468 0 0 0 .057-.414L15.64 11.28a.46.46 0 0 0-.097-.172 4.892 4.892 0 0 0-2.257-1.328C12.775 7.83 11.053 6.4 9 6.4zm-2.889 4.114a4.71 4.71 0 0 1 2.445.7v2.929c-.856-.704-2.049-1.114-3.348-1.114-1.028 0-1.981.27-2.757.728l.702-2.057c.662-.667 1.693-1.186 2.958-1.186zm5.778 0c1.265 0 2.296.52 2.958 1.186l.702 2.057a5.432 5.432 0 0 0-2.757-.728c-1.3 0-2.492.41-3.348 1.114v-2.929a4.71 4.71 0 0 1 2.445-.7zm-6.68 3.429c1.104 0 2.098.37 2.777.914H2.444c.673-.547 1.655-.914 2.764-.914zm7.583 0c1.109 0 2.091.367 2.764.914h-5.542c.679-.543 1.673-.914 2.778-.914z"/></symbol><symbol viewBox="0 0 18 18" id="facebook" xmlns="http://www.w3.org/2000/svg"><path fill="#FFF" fill-rule="evenodd" d="M17.86 16.874a.986.986 0 0 1-.986.986h-4.551v-6.916h2.321l.348-2.696h-2.67v-1.72c0-.781.218-1.313 1.337-1.313h1.427V2.804a19.17 19.17 0 0 0-2.08-.106c-2.058 0-3.466 1.256-3.466 3.563v1.987H7.212v2.696H9.54v6.916H.986A.986.986 0 0 1 0 16.874V.986C0 .441.441 0 .986 0h15.888c.544 0 .985.441.985.986v15.888"/></symbol><symbol viewBox="0 0 19 18" id="instagram" xmlns="http://www.w3.org/2000/svg"><path fill="#FFF" fill-rule="evenodd" d="M15.916 0H2.32C1.15 0 .2.947.2 2.115v13.606c0 1.168.95 2.115 2.12 2.115h13.596c1.17 0 2.12-.947 2.12-2.115V2.115c0-1.168-.95-2.115-2.12-2.115zM13.02 2.787c0-.308.25-.557.557-.557h1.672c.308 0 .557.25.557.557v1.672c0 .308-.25.557-.557.557h-1.672a.557.557 0 0 1-.557-.557V2.787zm-3.881 2.73a3.426 3.426 0 0 1 3.43 3.422 3.426 3.426 0 0 1-3.43 3.422 3.426 3.426 0 0 1-3.43-3.422 3.426 3.426 0 0 1 3.43-3.422zm7.225 10.09c0 .307-.25.557-.558.557H2.43a.558.558 0 0 1-.558-.558v-8.36h2.23c-.29.418-.39 1.197-.39 1.693 0 2.984 2.435 5.413 5.427 5.413 2.992 0 5.426-2.429 5.426-5.413 0-.496-.07-1.264-.43-1.693h2.229v8.36z"/></symbol><symbol viewBox="0 0 22 18" id="instructors" xmlns="http://www.w3.org/2000/svg"><g stroke-width=".7"><path d="M5.916 9.686C7.15 9.686 8.15 8.662 8.15 7.4s-1-2.286-2.234-2.286S3.682 6.138 3.682 7.4s1 2.286 2.234 2.286zm0-3.657c.74 0 1.34.614 1.34 1.371s-.6 1.371-1.34 1.371c-.74 0-1.34-.614-1.34-1.371s.6-1.371 1.34-1.371zm0 4.571C3.148 10.662.95 13.003 1 15.834v.709c0 .252.2.457.447.457h8.936a.452.452 0 0 0 .447-.457v-.709c.05-2.831-2.148-5.172-4.915-5.234zm4.021 5.486H1.894v-.252c-.05-2.327 1.748-4.257 4.022-4.32 2.274.063 4.071 1.993 4.021 4.32v.252z"/><path d="M21.107 1H5.916a.452.452 0 0 0-.447.457v2.066c0 .253.2.458.447.458a.452.452 0 0 0 .447-.458V1.914H20.66v10.057h-8.663a.452.452 0 0 0-.447.458c0 .252.2.457.447.457h9.11a.452.452 0 0 0 .447-.457V1.457c0-.252-.2-.457-.447-.457z"/></g></symbol><symbol viewBox="0 0 20 18" id="jobs" xmlns="http://www.w3.org/2000/svg"><g stroke-width=".5"><path d="M18.835 16.065l-1.213-1.186c.386-.54.607-1.187.607-1.888 0-1.834-1.525-3.326-3.398-3.326-1.874 0-3.398 1.492-3.398 3.326s1.524 3.326 3.398 3.326c.808 0 1.542-.288 2.13-.737l1.176 1.15c.092.09.22.144.349.144a.507.507 0 0 0 .349-.144.47.47 0 0 0 0-.665zm-4.004-.683c-1.341 0-2.425-1.079-2.425-2.373 0-1.312 1.084-2.373 2.425-2.373 1.34 0 2.424 1.06 2.424 2.373 0 1.294-1.084 2.373-2.424 2.373z"/><path d="M10.588 15.094h-7.53c-.552 0-.993-.485-.993-1.078V5.44c0-.593.441-1.078.992-1.078h13.096c.551 0 .992.485.992 1.078v3.38c0 .288.239.504.514.504a.52.52 0 0 0 .514-.504V5.44c0-1.15-.918-2.103-2.038-2.103H12.57V2.294a1.15 1.15 0 0 0-1.138-1.15H7.557c-.624 0-1.139.521-1.139 1.15v1.043h-3.36c-1.121 0-2.04.953-2.04 2.103v8.576c0 1.15.919 2.103 2.04 2.103h7.548a.508.508 0 0 0 .514-.503.527.527 0 0 0-.532-.522zM7.465 2.312c0-.072.055-.143.092-.143h3.876c.036 0 .091.053.091.143v1.025H7.465V2.312z"/></g></symbol><symbol viewBox="0 0 19 18" id="linkedin" xmlns="http://www.w3.org/2000/svg"><path fill="#FFF" fill-rule="evenodd" d="M1.152 6.132H4.65v11.083H1.152V6.132zm13.055-.107c2.486 0 4.44 1.594 4.44 5.027v6.163H14.68V11.48c0-1.502-.62-2.526-1.985-2.526-1.043 0-1.624.691-1.894 1.358-.1.239-.085.572-.085.905v5.998h-3.93s.051-10.16 0-11.083h3.93v1.74c.232-.762 1.487-1.847 3.491-1.847zM2.837.9c1.29 0 2.084.828 2.11 1.921 0 1.074-.82 1.925-2.135 1.925h-.025C1.521 4.746.7 3.898.7 2.824.7 1.73 1.545.9 2.837.9z"/></symbol><symbol viewBox="0 0 136 88" id="logo" xmlns="http://www.w3.org/2000/svg"><defs><filter id="ja" width="181.1%" height="228.1%" x="-40.6%" y="-64%" filterUnits="objectBoundingBox"><feOffset in="SourceAlpha" result="shadowOffsetOuter1"/><feGaussianBlur in="shadowOffsetOuter1" result="shadowBlurOuter1" stdDeviation="9.5"/><feColorMatrix in="shadowBlurOuter1" result="shadowMatrixOuter1" values="0 0 0 0 0.984313725 0 0 0 0 1 0 0 0 0 0.0392156863 0 0 0 0.37928868 0"/><feMerge><feMergeNode in="shadowMatrixOuter1"/><feMergeNode in="SourceGraphic"/></feMerge></filter><path id="jb" d="M16.807 45.442l21.28-28.212L.791.91l60.39 9.042L45.67 34.22l43.398 21.862z"/><linearGradient id="jd" x1="50%" x2="41.325%" y1="30.469%" y2="74.123%"><stop offset="0%" stop-color="#FFD500"/><stop offset="100%" stop-color="#F12260"/></linearGradient></defs><g fill="none" fill-rule="evenodd"><path fill="#2D2D2D" fill-rule="nonzero" d="M5.197 52.062H6.82c.861 0 1.534-.342 2.02-1.026.485-.728 1.114-3.001 1.887-6.82.617-3.045.926-5.053.926-6.024 0-.552-.143-.982-.43-1.291-.265-.31-.651-.464-1.159-.464H8.31L5.197 52.062zm-5.23 3.972l4.7-23.57h6.092c1.17 0 2.096.188 2.78.564.684.375 1.27.96 1.755 1.754.53.839.794 1.975.794 3.41 0 .794-.309 2.802-.927 6.025-.618 3.09-1.147 5.307-1.589 6.653-.441 1.347-1.037 2.395-1.787 3.145-1.346 1.346-3.123 2.02-5.33 2.02H-.033zm29.392 0H24.89l.033-3.806H19.76l-1.522 3.806H13.47l10.46-23.57h4.37l1.06 23.57zm-4.502-7.779l.033-9.236-3.542 9.236h3.51zm6.949 7.78l3.906-19.598h-3.774l.794-3.972h11.984l-.795 3.972h-3.773L36.24 56.034h-4.435zm24.426 0h-4.469l.034-3.807h-5.165l-1.522 3.806h-4.767l10.46-23.57h4.37l1.06 23.57zm-4.502-7.78l.033-9.236-3.542 9.236h3.51z"/><g filter="url(#ja)" transform="rotate(-2 512.506 -896.116)"><mask id="jc" fill="#fff"><use xlink:href="#jb"/></mask><use fill="#FBFF0A" xlink:href="#jb"/><path fill="#FBCF09" d="M50.963 13.212L63.02 9.567 45.67 34.22l-13.203 5.137-15.66 6.085 21.284-28.27z" mask="url(#jc)"/><path fill="url(#jd)" d="M.792.91l50.171 12.302-18.496 26.145 56.6 16.725L15.37 46.006 36.34 17.67z" mask="url(#jc)"/></g><path fill="#2D2D2D" fill-rule="nonzero" d="M86.655 44.25c.684-3.355 1.264-5.7 1.738-7.035.475-1.335 1.098-2.389 1.87-3.161 1.236-1.236 2.88-1.854 4.933-1.854 2.273 0 3.84.761 4.7 2.284.508.905.762 2.042.762 3.41 0 1.39-.298 3.509-.894 6.356-.684 3.354-1.263 5.699-1.738 7.034-.474 1.335-1.098 2.39-1.87 3.162-1.236 1.235-2.88 1.853-4.933 1.853-2.273 0-3.84-.761-4.7-2.284-.508-.905-.762-2.041-.762-3.41 0-1.39.298-3.508.894-6.355zm4.436 0c-.596 2.979-.894 5.076-.894 6.29 0 1.191.486 1.787 1.457 1.787.53 0 1.004-.21 1.423-.63.375-.374.717-1.08 1.026-2.118.31-1.037.718-2.813 1.225-5.33.596-2.979.894-5.075.894-6.289 0-1.192-.485-1.788-1.456-1.788-.53 0-1.005.21-1.424.63-.375.375-.717 1.08-1.026 2.118-.31 1.037-.717 2.814-1.225 5.33zm8.603 11.784l4.701-23.57h3.608l2.384 11.951 2.218-11.95h4.436l-4.701 23.57h-3.443l-2.416-11.918-2.35 11.917h-4.437z"/></g></symbol><symbol viewBox="0 0 132 88" id="logo-footer" xmlns="http://www.w3.org/2000/svg"><defs><filter id="ka" width="181.1%" height="228.1%" x="-40.6%" y="-64%" filterUnits="objectBoundingBox"><feOffset in="SourceAlpha" result="shadowOffsetOuter1"/><feGaussianBlur in="shadowOffsetOuter1" result="shadowBlurOuter1" stdDeviation="9.5"/><feColorMatrix in="shadowBlurOuter1" result="shadowMatrixOuter1" values="0 0 0 0 0.984313725 0 0 0 0 1 0 0 0 0 0.0392156863 0 0 0 0.37928868 0"/><feMerge><feMergeNode in="shadowMatrixOuter1"/><feMergeNode in="SourceGraphic"/></feMerge></filter><path id="kb" d="M16.807 45.442l21.28-28.212L.791.91l60.39 9.042L45.67 34.22l43.398 21.862z"/><linearGradient id="kd" x1="50%" x2="41.325%" y1="30.469%" y2="74.123%"><stop offset="0%" stop-color="#FFD500"/><stop offset="100%" stop-color="#F12260"/></linearGradient></defs><g fill="none" fill-rule="evenodd"><path fill="#FFF" fill-rule="nonzero" d="M5.197 52.062H6.82c.861 0 1.534-.342 2.02-1.026.485-.728 1.114-3.001 1.887-6.82.617-3.045.926-5.053.926-6.024 0-.552-.143-.982-.43-1.291-.265-.31-.651-.464-1.159-.464H8.31L5.197 52.062zm-5.23 3.972l4.7-23.57h6.092c1.17 0 2.096.188 2.78.564.684.375 1.27.96 1.755 1.754.53.839.794 1.975.794 3.41 0 .794-.309 2.802-.927 6.025-.618 3.09-1.147 5.307-1.589 6.653-.441 1.347-1.037 2.395-1.787 3.145-1.346 1.346-3.123 2.02-5.33 2.02H-.033zm28.513 0h-4.469l.033-3.806H18.88l-1.523 3.806H12.59l10.461-23.57h4.37l1.059 23.57zm-4.502-7.779l.033-9.236-3.542 9.236h3.509zm6.069 7.78l3.906-19.598H30.18l.795-3.972h11.983l-.794 3.972H38.39l-3.906 19.597h-4.436zm21.892 0H47.47l.033-3.807H42.34l-1.522 3.806H36.05l10.46-23.57h4.37l1.06 23.57zm-4.502-7.78l.033-9.236-3.542 9.236h3.51z"/><g filter="url(#ka)" transform="rotate(-2 510.506 -781.536)"><mask id="kc" fill="#fff"><use xlink:href="#kb"/></mask><use fill="#FBFF0A" xlink:href="#kb"/><path fill="#FBCF09" d="M50.963 13.212L63.02 9.567 45.67 34.22l-13.203 5.137-15.66 6.085 21.284-28.27z" mask="url(#kc)"/><path fill="url(#kd)" d="M.792.91l50.171 12.302-18.496 26.145 56.6 16.725L15.37 46.006 36.34 17.67z" mask="url(#kc)"/></g><path fill="#FFF" fill-rule="nonzero" d="M81.655 44.25c.684-3.355 1.264-5.7 1.738-7.035.475-1.335 1.098-2.389 1.87-3.161 1.236-1.236 2.88-1.854 4.933-1.854 2.273 0 3.84.761 4.7 2.284.508.905.762 2.042.762 3.41 0 1.39-.298 3.509-.894 6.356-.684 3.354-1.263 5.699-1.738 7.034-.474 1.335-1.098 2.39-1.87 3.162-1.236 1.235-2.88 1.853-4.933 1.853-2.273 0-3.84-.761-4.7-2.284-.508-.905-.762-2.041-.762-3.41 0-1.39.298-3.508.894-6.355zm4.436 0c-.596 2.979-.894 5.076-.894 6.29 0 1.191.486 1.787 1.457 1.787.53 0 1.004-.21 1.423-.63.375-.374.717-1.08 1.026-2.118.31-1.037.718-2.813 1.225-5.33.596-2.979.894-5.075.894-6.289 0-1.192-.485-1.788-1.456-1.788-.53 0-1.005.21-1.424.63-.375.375-.717 1.08-1.026 2.118-.31 1.037-.717 2.814-1.225 5.33zm7.724 11.784l4.7-23.57h3.61l2.383 11.951 2.218-11.95h4.435l-4.7 23.57h-3.443L100.6 44.116l-2.35 11.917h-4.436z"/></g></symbol><symbol viewBox="0 0 25 17" id="menu" xmlns="http://www.w3.org/2000/svg"><path d="M22.85 2.924H4.894c-.83 0-1.658.017-2.481 0h-.035c-.754 0-1.473-.662-1.438-1.44C.974.709 1.573.047 2.378.047h17.957c.829 0 1.658-.017 2.48 0h.035c.754 0 1.474.662 1.44 1.439-.035.783-.634 1.439-1.44 1.439zm0 7.016H9.2c-.754 0-1.474-.662-1.44-1.44.035-.776.634-1.438 1.44-1.438h13.65c.754 0 1.474.662 1.44 1.439-.035.782-.634 1.439-1.44 1.439zm0 6.825h-6.825c-.754 0-1.474-.661-1.44-1.438.035-.777.634-1.44 1.44-1.44h6.825c.754 0 1.474.663 1.44 1.44-.035.777-.634 1.438-1.44 1.438z"/></symbol><symbol viewBox="0 0 26 24" id="pin" xmlns="http://www.w3.org/2000/svg"><path stroke="#2D2D2D" stroke-width=".5" d="M13.293 22.92h-.133a.797.797 0 0 1-.64-.644l-1.467-10.061-9.52-3.461C1.213 8.646 1 8.324 1 7.976c.027-.35.24-.644.56-.725l22.453-6.224a.763.763 0 0 1 .8.268.83.83 0 0 1 .08.859L13.96 22.49a.73.73 0 0 1-.667.43zM4.36 8.11l7.68 2.763a.846.846 0 0 1 .507.617l1.2 8.21 8.96-16.661L4.36 8.109z"/></symbol><symbol viewBox="0 0 24 24" id="search" xmlns="http://www.w3.org/2000/svg"><path d="M22.933 21.389l-5.45-5.45a9.765 9.765 0 0 0 2.153-6.12C19.636 4.403 15.232 0 9.818 0 4.405 0 0 4.404 0 9.818s4.405 9.818 9.818 9.818a9.76 9.76 0 0 0 6.122-2.155l5.45 5.45a1.087 1.087 0 0 0 1.542 0 1.09 1.09 0 0 0 0-1.542zM2.182 9.819c0-4.211 3.425-7.637 7.636-7.637s7.637 3.426 7.637 7.636-3.426 7.637-7.637 7.637c-4.21 0-7.636-3.427-7.636-7.637z"/></symbol><symbol viewBox="0 0 57 50" id="share" xmlns="http://www.w3.org/2000/svg"><defs><linearGradient id="oc" x1="111.448%" x2="-10.105%" y1="-92.238%" y2="148.505%"><stop offset="0%" stop-color="#FFD500"/><stop offset="100%" stop-color="#F12260"/></linearGradient><path id="ob" d="M14.47 5.004C6.523 5.192.123 11.711.003 19.77c.102-.13.205-.257.31-.383 2.979-3.558 7.426-5.816 12.394-5.816.596 0 1.185.033 1.765.096v3.828c0 .792.45.994 1.02.438l7.842-7.652c.563-.55.57-1.435 0-1.99L15.49.637c-.564-.55-1.02-.353-1.02.439v3.927z"/><filter id="oa" width="344.1%" height="398.3%" x="-117.9%" y="-128.6%" filterUnits="objectBoundingBox"><feOffset dx="1" dy="4" in="SourceAlpha" result="shadowOffsetOuter1"/><feGaussianBlur in="shadowOffsetOuter1" result="shadowBlurOuter1" stdDeviation="9"/><feColorMatrix in="shadowBlurOuter1" values="0 0 0 0 0.956862745 0 0 0 0 0.439215686 0 0 0 0 0.282352941 0 0 0 0.502731643 0"/></filter></defs><g fill="none" fill-rule="evenodd" transform="translate(15 11)"><use fill="#000" filter="url(#oa)" xlink:href="#ob"/><use fill="url(#oc)" xlink:href="#ob"/></g></symbol><symbol viewBox="0 0 19 17" id="twitter" xmlns="http://www.w3.org/2000/svg"><path fill="#FFF" fill-rule="evenodd" d="M18.218 1.18a7.361 7.361 0 0 1-2.376.93A3.686 3.686 0 0 0 13.114.9c-2.063 0-3.737 1.716-3.737 3.833 0 .3.033.592.097.873-3.107-.16-5.861-1.684-7.706-4.006a3.903 3.903 0 0 0-.506 1.929c0 1.33.66 2.502 1.664 3.19A3.67 3.67 0 0 1 1.23 6.24v.047c0 1.858 1.289 3.408 3 3.758a3.643 3.643 0 0 1-1.689.067c.477 1.523 1.856 2.631 3.492 2.661A7.382 7.382 0 0 1 .5 14.363a10.405 10.405 0 0 0 5.73 1.72c6.877 0 10.636-5.84 10.636-10.905 0-.167-.003-.333-.01-.497a7.669 7.669 0 0 0 1.864-1.983 7.35 7.35 0 0 1-2.146.603 3.826 3.826 0 0 0 1.644-2.12"/></symbol></svg>